<?xml version="1.0" encoding="UTF-8" standalone="no"?>
<svg
   xmlns:dc="http://purl.org/dc/elements/1.1/"
   xmlns:cc="http://creativecommons.org/ns#"
   xmlns:rdf="http://www.w3.org/1999/02/22-rdf-syntax-ns#"
   xmlns:svg="http://www.w3.org/2000/svg"
   xmlns="http://www.w3.org/2000/svg"
   xmlns:sodipodi="http://sodipodi.sourceforge.net/DTD/sodipodi-0.dtd"
   xmlns:inkscape="http://www.inkscape.org/namespaces/inkscape"
   version="1.0"
   width="316"
   height="316"
   viewBox="0 0 236.99999 236.99999"
   preserveAspectRatio="xMidYMid meet"
   id="svg284"
   sodipodi:docname="1.svg"
   inkscape:version="0.92.4 (5da689c313, 2019-01-14)">
  <defs
     id="defs288" />
  <sodipodi:namedview
     pagecolor="#ffffff"
     bordercolor="#666666"
     borderopacity="1"
     objecttolerance="10"
     gridtolerance="10"
     guidetolerance="10"
     inkscape:pageopacity="0"
     inkscape:pageshadow="2"
     inkscape:window-width="1366"
     inkscape:window-height="705"
     id="namedview286"
     showgrid="false"
     units="px"
     inkscape:pagecheckerboard="false"
     inkscape:zoom="0.90028971"
     inkscape:cx="448.13843"
     inkscape:cy="267.51465"
     inkscape:window-x="-8"
     inkscape:window-y="-8"
     inkscape:window-maximized="1"
     inkscape:current-layer="svg284" />
  <metadata
     id="metadata150">
Created by potrace 1.16, written by Peter Selinger 2001-2019
<rdf:RDF>
  <cc:Work
     rdf:about="">
    <dc:format>image/svg+xml</dc:format>
    <dc:type
       rdf:resource="http://purl.org/dc/dcmitype/StillImage" />
    <dc:title></dc:title>
  </cc:Work>
</rdf:RDF>
</metadata>
  <g
     transform="matrix(0.0117,0,0,-0.01170007,1.6661303,236.16692)"
     id="g282"
     style="fill:#ff0000;stroke:none;stroke-width:8.54698277">
    <path
       d="m 9874,19990 c -5,-5 -51,-25 -103,-44 -51,-19 -111,-47 -133,-62 -59,-41 -143,-136 -182,-207 -78,-141 -90,-231 -59,-450 9,-64 14,-119 12,-121 -2,-2 -62,-6 -133,-8 l -128,-5 8,86 c 16,160 11,210 -30,297 -132,277 -344,413 -626,402 -85,-4 -119,-10 -175,-33 -160,-64 -285,-177 -358,-324 l -42,-84 v -171 -171 l 44,-93 c 24,-50 42,-94 40,-97 -8,-7 -273,-64 -278,-59 -3,3 -8,53 -12,112 -11,176 -54,269 -183,397 -127,126 -265,185 -431,185 -166,0 -309,-64 -446,-200 -71,-69 -94,-101 -130,-174 l -44,-89 v -161 c 0,-153 1,-164 27,-218 14,-31 44,-83 65,-115 22,-32 43,-63 47,-70 4,-8 -27,-28 -99,-62 -151,-71 -140,-71 -152,-2 -6,32 -27,92 -46,132 -84,181 -228,313 -396,363 -71,21 -253,21 -341,0 -204,-48 -372,-201 -431,-396 -18,-59 -20,-87 -17,-225 5,-196 17,-232 128,-375 44,-56 77,-104 75,-108 -2,-4 -46,-31 -97,-60 -51,-30 -103,-60 -115,-67 -20,-14 -22,-12 -32,38 -48,220 -314,432 -563,447 -116,6 -193,-10 -306,-64 -154,-74 -275,-204 -328,-350 -20,-54 -24,-84 -24,-183 0,-235 73,-399 229,-512 33,-24 60,-46 60,-49 0,-3 -42,-50 -93,-104 l -93,-99 -85,114 c -101,137 -159,191 -241,230 -107,49 -176,62 -322,57 -125,-3 -133,-5 -205,-39 -98,-47 -161,-105 -268,-248 l -88,-117 -13,-99 c -18,-145 -3,-273 42,-370 45,-95 139,-193 256,-269 80,-52 89,-61 78,-75 -7,-9 -48,-57 -91,-108 l -78,-92 -49,60 c -66,78 -164,158 -246,200 -66,34 -68,34 -225,37 -141,3 -166,1 -223,-18 -182,-61 -357,-256 -409,-456 -19,-72 -21,-204 -5,-272 6,-26 31,-89 56,-141 37,-77 59,-108 122,-171 81,-81 187,-144 263,-156 21,-4 38,-8 38,-10 0,-3 -31,-58 -69,-124 l -68,-121 -89,72 c -49,39 -118,85 -154,102 -63,31 -69,32 -228,35 -142,3 -171,1 -230,-17 -193,-59 -344,-222 -396,-427 -24,-93 -21,-264 5,-350 57,-188 208,-341 392,-399 43,-14 96,-25 118,-25 21,0 39,-4 39,-9 0,-27 -90,-256 -102,-259 -7,-1 -56,24 -107,58 -52,33 -108,62 -125,66 -17,3 -108,4 -202,2 l -170,-3 -76,-38 c -147,-72 -303,-250 -348,-394 -40,-129 -22,-284 50,-440 44,-94 94,-152 194,-225 39,-28 87,-63 106,-78 32,-25 49,-29 175,-40 77,-7 142,-15 144,-16 2,-2 -9,-59 -24,-128 -24,-109 -31,-126 -48,-126 -10,0 -59,16 -108,36 l -88,36 -159,-4 -159,-3 -86,-43 c -205,-101 -344,-313 -355,-541 -6,-116 8,-181 58,-286 72,-148 199,-272 340,-332 62,-27 72,-28 228,-28 h 164 l -9,-65 c -4,-36 -8,-95 -8,-131 v -65 l -45,7 c -25,4 -58,12 -73,18 -16,6 -83,11 -150,11 -130,0 -180,-10 -268,-54 -143,-72 -208,-143 -294,-318 L 0,10115 v -103 c 0,-80 4,-111 19,-140 10,-20 26,-62 36,-92 31,-95 66,-153 134,-220 76,-74 149,-121 248,-155 81,-29 168,-32 318,-10 156,23 141,31 149,-87 4,-57 9,-114 12,-128 l 4,-25 H 753 c -161,0 -171,-1 -233,-28 -141,-60 -268,-184 -340,-332 -50,-105 -64,-170 -58,-286 11,-228 150,-440 355,-541 l 86,-43 172,-3 c 171,-4 173,-3 226,24 30,15 72,33 94,39 l 40,13 32,-132 c 17,-72 29,-133 26,-136 -2,-3 -68,-6 -146,-8 -105,-3 -144,-7 -149,-17 -5,-7 -52,-45 -107,-84 -123,-88 -174,-144 -221,-246 -50,-106 -70,-193 -70,-301 1,-155 57,-271 194,-402 137,-130 285,-192 459,-192 119,1 162,15 300,99 47,29 91,51 97,49 8,-2 110,-238 110,-254 0,-1 -30,-7 -66,-13 -240,-42 -425,-201 -493,-425 -26,-86 -29,-257 -5,-350 51,-201 194,-358 383,-423 56,-19 88,-23 212,-23 212,0 256,15 418,144 47,37 88,63 93,58 4,-4 37,-57 73,-118 55,-93 62,-110 47,-115 -9,-3 -42,-14 -72,-24 -174,-56 -344,-246 -394,-441 -20,-79 -20,-209 0,-288 25,-98 91,-212 167,-293 79,-83 143,-127 233,-159 128,-47 369,-28 502,40 68,35 160,114 202,175 19,27 37,50 40,50 7,1 193,-199 189,-203 -2,-2 -29,-16 -59,-32 -119,-63 -258,-227 -307,-361 -19,-53 -23,-84 -23,-176 0,-204 49,-329 180,-460 62,-62 94,-85 161,-116 104,-48 164,-61 282,-61 103,0 169,15 260,58 127,60 229,155 292,273 l 31,58 102,-86 c 56,-46 102,-88 102,-93 0,-5 -15,-18 -34,-29 -59,-37 -152,-146 -190,-223 -51,-104 -68,-196 -64,-349 3,-122 4,-127 42,-205 56,-114 180,-236 297,-293 115,-55 201,-74 319,-69 151,7 281,69 410,198 81,82 137,176 147,249 3,22 7,41 9,41 4,0 237,-129 242,-134 1,-2 -27,-41 -64,-87 -87,-109 -100,-132 -124,-208 -29,-90 -29,-321 0,-412 53,-174 190,-312 372,-377 98,-34 303,-44 394,-17 195,56 367,234 419,431 8,32 15,73 15,91 0,18 4,33 9,33 7,0 263,-90 267,-94 1,0 -25,-46 -57,-100 -88,-149 -99,-185 -99,-324 0,-94 5,-130 23,-183 64,-188 233,-353 419,-410 95,-29 323,-24 413,9 133,49 260,165 326,297 43,87 59,157 59,258 0,63 3,87 13,87 6,0 67,-12 135,-26 143,-32 141,-29 87,-143 l -35,-73 V 756 c 0,-128 3,-162 21,-214 51,-152 186,-296 345,-369 85,-38 150,-53 244,-53 262,0 478,146 595,402 38,84 44,133 30,265 -7,65 -11,120 -9,122 2,2 51,-2 108,-9 58,-7 118,-10 134,-7 l 29,6 -8,-42 c -5,-23 -13,-60 -19,-82 -5,-22 -10,-92 -10,-155 0,-96 4,-126 25,-183 31,-90 77,-166 143,-238 67,-73 125,-110 234,-149 49,-18 91,-36 94,-41 7,-12 241,-12 248,0 3,5 45,23 94,41 107,38 165,75 229,143 97,104 156,225 174,355 9,65 7,96 -10,198 -12,67 -21,128 -21,136 0,13 23,16 133,20 72,3 133,5 134,4 0,0 -5,-54 -12,-118 -15,-136 -9,-183 35,-277 117,-249 331,-391 590,-391 94,0 159,15 244,53 159,73 294,217 345,369 18,52 21,86 21,214 v 152 l -35,73 c -54,114 -56,111 88,143 67,14 128,26 135,26 9,0 12,-24 12,-87 0,-101 16,-171 59,-258 66,-132 193,-248 326,-297 90,-33 318,-38 413,-9 186,57 368,233 422,409 15,49 20,93 20,183 0,139 -8,167 -94,313 -32,53 -56,102 -54,108 3,9 239,98 260,98 4,0 8,-15 8,-33 0,-18 7,-59 15,-91 52,-197 224,-375 419,-431 91,-27 296,-17 394,17 182,65 319,203 372,377 29,91 29,322 0,412 -24,76 -37,99 -124,208 -37,46 -65,85 -64,87 5,5 238,134 242,134 2,0 6,-17 8,-38 22,-159 223,-363 425,-431 222,-74 549,45 699,254 75,106 94,173 94,341 0,156 -12,213 -62,302 -35,61 -122,158 -190,212 l -47,38 99,91 c 54,50 101,91 103,91 3,0 39,-47 81,-104 120,-165 209,-231 362,-270 79,-20 232,-21 309,-1 224,58 392,226 450,450 8,33 15,102 15,156 0,170 -57,303 -187,440 -50,52 -95,88 -139,111 -35,18 -63,36 -61,39 5,13 186,203 190,199 117,-164 206,-230 365,-271 113,-29 290,-27 376,5 91,33 154,76 235,161 77,82 150,216 170,313 16,76 14,194 -5,266 -55,212 -245,409 -441,456 l -42,10 61,108 c 34,59 66,113 73,120 9,11 28,0 95,-53 161,-128 210,-145 416,-145 114,0 155,4 205,20 175,55 312,190 377,372 34,97 43,280 18,378 -59,234 -251,407 -500,451 -36,6 -66,12 -66,13 1,18 101,251 109,254 7,2 51,-20 98,-49 138,-84 181,-98 300,-99 174,0 322,62 459,192 136,130 193,247 194,399 0,172 -65,339 -182,464 -122,131 -212,174 -390,184 -65,4 -119,9 -122,12 -3,2 9,63 26,135 l 31,131 31,-7 c 17,-4 63,-20 101,-36 67,-28 76,-29 235,-29 h 165 l 69,32 c 135,65 239,169 310,310 46,92 66,175 66,274 -1,266 -156,482 -420,581 -81,30 -91,32 -233,32 l -149,1 6,45 c 3,25 8,82 12,128 8,95 -6,89 149,67 150,-22 237,-19 318,10 99,34 172,81 248,155 73,72 96,110 140,238 17,48 35,91 40,97 5,5 9,56 9,114 v 104 l -64,131 c -86,177 -153,250 -295,322 -88,44 -138,54 -268,54 -67,0 -134,-5 -150,-11 -15,-6 -49,-14 -74,-18 l -46,-8 -6,116 c -3,64 -8,123 -12,131 -5,13 14,15 139,12 161,-5 215,6 321,61 91,48 212,174 262,272 60,116 76,189 70,310 -3,77 -11,117 -32,174 -59,156 -187,308 -319,378 l -71,38 -170,3 c -165,3 -173,3 -229,-22 -32,-14 -80,-32 -106,-40 l -47,-14 -31,131 c -17,73 -29,134 -26,136 2,3 53,8 112,12 173,12 288,63 403,179 123,124 185,292 177,478 -3,84 -8,106 -36,166 -74,158 -206,298 -350,369 l -85,42 -144,3 c -163,4 -178,0 -339,-99 -46,-28 -88,-49 -95,-47 -8,3 -108,236 -109,254 0,1 30,7 66,13 249,44 441,217 500,451 25,98 16,281 -18,378 -66,184 -204,320 -380,373 -59,18 -88,20 -230,17 -152,-3 -167,-5 -220,-30 -61,-28 -95,-52 -192,-131 -39,-32 -62,-45 -69,-38 -5,5 -38,58 -73,118 -64,110 -66,123 -18,123 36,0 175,76 232,125 93,82 176,217 208,338 18,70 18,205 -2,281 -52,200 -227,395 -410,456 -57,19 -82,21 -227,18 l -162,-3 -75,-40 c -72,-38 -211,-161 -254,-225 l -17,-25 -99,104 -99,104 77,45 c 47,27 109,77 158,126 122,122 164,224 164,398 0,128 -13,184 -67,297 -76,159 -222,285 -378,326 -77,20 -252,20 -329,0 -158,-41 -326,-171 -397,-307 l -34,-67 -108,90 -107,90 47,38 c 69,55 156,152 191,213 54,94 64,151 60,322 l -3,152 -39,80 c -56,114 -180,236 -297,293 -116,56 -201,74 -319,69 -153,-8 -282,-70 -410,-198 -81,-82 -137,-176 -147,-249 -3,-22 -7,-41 -9,-41 -4,0 -237,129 -242,134 -1,2 27,41 64,87 87,109 100,132 124,208 29,90 29,321 0,412 -53,174 -190,312 -372,377 -60,21 -96,26 -205,30 -114,4 -141,1 -202,-17 -196,-60 -388,-276 -432,-486 -7,-33 -14,-62 -15,-63 -1,-2 -59,17 -129,43 l -125,48 17,26 c 43,64 104,179 120,226 14,39 18,83 18,201 v 150 l -38,78 c -47,93 -141,197 -236,260 -123,81 -231,116 -358,116 -161,0 -292,-58 -418,-185 -128,-127 -185,-256 -185,-417 0,-69 -3,-88 -14,-88 -15,0 -242,47 -263,55 -9,3 1,33 33,97 l 45,93 -3,175 c -3,175 -3,176 -35,240 -60,120 -171,230 -304,300 -97,51 -173,70 -274,70 -254,-1 -469,-144 -585,-391 -48,-104 -53,-166 -26,-365 l 4,-32 -131,6 c -73,2 -134,6 -136,8 -2,2 6,64 18,138 19,115 21,145 12,210 -20,140 -95,281 -203,381 -69,64 -87,74 -203,116 -47,17 -88,35 -91,40 -7,12 -237,12 -250,-1 z m 666,-1260 c 387,-19 646,-56 1275,-185 595,-121 769,-170 1182,-334 311,-124 836,-352 1015,-442 660,-330 1330,-813 1994,-1435 458,-431 962,-1028 1317,-1560 270,-406 446,-732 647,-1204 368,-864 492,-1254 634,-2010 72,-381 110,-703 127,-1070 13,-272 6,-1073 -11,-1280 -74,-914 -292,-1704 -794,-2881 -334,-786 -859,-1555 -1583,-2325 -668,-709 -1529,-1365 -2308,-1759 -292,-147 -878,-400 -1230,-530 -317,-117 -457,-153 -1060,-274 -818,-164 -1079,-188 -1920,-178 -625,8 -879,34 -1490,153 -652,128 -963,223 -1630,502 -132,55 -310,128 -395,162 -332,134 -695,340 -1235,700 -441,295 -753,557 -1235,1040 -475,475 -820,891 -1145,1380 -407,614 -735,1302 -1005,2110 -261,779 -390,1441 -421,2160 -15,325 -5,1129 15,1372 75,886 292,1660 793,2838 353,829 976,1715 1752,2491 656,656 1415,1221 2120,1578 347,176 1017,453 1416,586 633,211 1511,373 2160,398 191,8 834,5 1015,-3 z"
       id="path152"
       style="fill:#ff0000;stroke-width:8.54698277"
       inkscape:connector-curvature="0" />
    <path
       d="m 9450,18374 c -180,-12 -444,-37 -570,-54 -1345,-175 -2615,-691 -3770,-1532 -595,-433 -1201,-1002 -1645,-1548 -997,-1223 -1619,-2735 -1794,-4360 -41,-377 -46,-495 -46,-995 1,-532 4,-594 66,-1020 118,-823 405,-1788 720,-2418 416,-831 841,-1467 1367,-2044 444,-488 885,-882 1391,-1242 1018,-726 2194,-1218 3402,-1425 540,-93 921,-121 1517,-113 586,8 996,50 1537,158 1633,326 3117,1122 4306,2309 977,975 1698,2176 2094,3485 177,586 281,1142 337,1800 18,206 17,1047 0,1260 -73,883 -253,1663 -562,2435 -829,2073 -2507,3794 -4531,4648 -826,349 -1673,553 -2649,638 -174,15 -1020,28 -1170,18 z m 1165,-94 c 944,-70 1855,-295 2690,-665 631,-279 1585,-867 2095,-1290 131,-109 341,-316 405,-400 30,-39 77,-87 104,-108 178,-136 643,-696 908,-1092 266,-399 442,-697 622,-1055 137,-272 205,-422 306,-680 294,-749 473,-1543 536,-2375 16,-210 16,-990 0,-1210 -68,-954 -293,-1866 -666,-2710 -223,-503 -636,-1208 -1023,-1745 -236,-327 -503,-630 -667,-755 -40,-31 -87,-77 -105,-103 -50,-69 -246,-262 -389,-380 -587,-488 -1433,-1030 -1942,-1243 -68,-28 -214,-90 -324,-136 -632,-268 -796,-320 -1385,-438 -783,-158 -985,-182 -1605,-192 -760,-12 -1094,19 -1895,178 -584,116 -784,175 -1256,373 -548,229 -671,283 -808,355 -502,261 -1189,721 -1641,1098 -148,123 -345,315 -395,385 -18,26 -65,72 -105,103 -89,68 -292,275 -406,415 -472,577 -1048,1527 -1332,2195 -272,641 -466,1346 -561,2035 -97,698 -99,1580 -5,2275 151,1126 530,2190 1127,3165 410,668 849,1232 1222,1566 25,22 82,81 128,132 212,234 672,602 1166,931 348,232 589,379 801,486 147,75 621,270 960,396 886,328 1579,475 2375,503 177,6 924,-3 1065,-14 z"
       id="path154"
       style="fill:#ff0000;stroke-width:8.54698277"
       inkscape:connector-curvature="0" />
    <path
       d="m 10005,18008 c -32,-17 -76,-61 -91,-90 -18,-35 -18,-129 1,-175 21,-49 19,-70 -7,-77 -13,-3 -173,-6 -355,-6 h -333 v -40 -40 h 220 220 v -162 c 0,-110 -4,-171 -13,-187 -29,-58 -138,-85 -178,-44 -25,25 -36,96 -20,135 12,32 49,58 94,67 34,7 43,25 32,68 -6,24 -8,25 -69,21 -79,-5 -150,-45 -184,-103 -19,-34 -22,-52 -20,-112 3,-61 8,-78 33,-114 44,-62 101,-89 189,-89 47,1 78,6 90,15 40,30 46,20 46,-70 v -85 h 59 59 l 4,185 3,185 41,40 c 48,49 92,56 127,21 18,-17 22,-33 22,-79 0,-79 -9,-104 -55,-157 -22,-26 -38,-51 -34,-56 7,-12 81,-59 92,-59 14,0 92,110 118,165 27,58 32,137 10,189 -8,18 -30,50 -50,70 l -37,36 h -97 c -72,0 -103,-4 -120,-16 l -22,-15 v 75 76 h 200 200 v 40 40 h -120 c -73,0 -120,4 -120,10 0,6 27,10 60,10 33,0 60,3 60,8 0,4 -9,35 -20,70 -17,53 -18,67 -7,99 15,45 59,73 116,76 35,1 47,-4 80,-37 43,-42 90,-137 98,-197 l 6,-39 h -57 -56 v -49 -50 l 48,-3 47,-3 -18,-210 c -20,-235 -17,-383 7,-421 14,-20 25,-24 65,-24 h 48 l 6,73 c 3,39 14,183 23,320 l 18,247 h 38 38 v 50 50 h -38 -37 l -12,59 c -23,121 -117,267 -197,305 -40,19 -219,22 -251,4 z"
       id="path156"
       style="fill:#ff0000;stroke-width:8.54698277"
       inkscape:connector-curvature="0" />
    <path
       d="m 8200,17824 c -47,-32 -82,-69 -101,-106 -24,-47 -26,-169 -4,-221 21,-51 19,-57 -18,-57 -43,0 -57,-15 -57,-62 v -38 h 59 c 35,0 63,-5 68,-12 6,-7 13,-38 17,-68 4,-30 25,-127 46,-215 21,-88 45,-191 53,-230 l 14,-70 53,-3 c 93,-5 100,33 45,229 -44,154 -74,285 -84,367 l -7,62 h 28 c 28,0 29,2 26,43 l -3,42 -49,1 c -46,1 -51,3 -68,35 -14,25 -18,49 -15,92 3,49 8,63 35,90 32,32 34,32 119,30 48,-1 136,-12 196,-23 118,-23 289,-79 288,-95 0,-5 -103,-23 -228,-40 l -228,-30 -3,-58 -3,-58 53,7 c 29,3 78,9 109,13 l 57,7 16,-73 c 9,-41 16,-78 16,-83 0,-6 -25,-21 -55,-35 -30,-13 -55,-27 -55,-30 0,-20 36,-68 72,-98 85,-69 178,-98 192,-61 12,32 6,154 -15,274 -11,67 -19,123 -17,125 2,1 40,7 85,12 71,8 82,7 86,-7 2,-8 24,-147 48,-308 l 44,-292 h 76 75 l -51,330 -51,330 h 28 c 27,0 28,2 28,50 v 50 h -78 c -65,0 -82,3 -97,19 -25,29 -165,95 -291,138 -105,36 -114,38 -269,41 -138,3 -163,1 -185,-14 z"
       id="path158"
       style="fill:#ff0000;stroke-width:8.54698277"
       inkscape:connector-curvature="0" />
    <path
       d="m 12005,17717 c -9,-14 -17,-48 -18,-74 l -2,-48 74,-9 c 56,-6 75,-5 81,4 13,21 23,121 13,131 -5,5 -36,12 -70,15 -58,6 -62,5 -78,-19 z"
       id="path160"
       style="fill:#ff0000;stroke-width:8.54698277"
       inkscape:connector-curvature="0" />
    <path
       d="m 7422,17610 -32,-50 181,-91 c 165,-82 180,-92 166,-106 -9,-9 -33,-19 -54,-22 -36,-6 -38,-9 -41,-44 -4,-46 11,-67 47,-67 68,0 95,-50 155,-282 43,-170 77,-270 99,-297 12,-14 103,-9 119,7 5,5 -26,142 -72,314 -44,167 -80,310 -80,316 0,7 11,12 25,12 22,0 25,4 25,34 0,59 -7,66 -64,66 -49,0 -58,5 -240,130 -104,72 -192,130 -195,130 -3,0 -21,-23 -39,-50 z"
       id="path162"
       style="fill:#ff0000;stroke-width:8.54698277"
       inkscape:connector-curvature="0" />
    <path
       d="m 11220,17507 v -53 l 140,-28 c 78,-16 143,-33 146,-37 7,-12 -26,-182 -38,-194 -6,-7 -31,13 -74,58 l -64,68 -43,-12 c -23,-6 -45,-13 -48,-15 -5,-3 205,-519 217,-533 6,-7 105,23 115,35 7,9 -8,48 -51,134 -34,67 -60,123 -58,125 2,2 38,24 80,49 l 77,45 11,-33 c 16,-50 43,-68 108,-75 l 59,-6 -24,-110 c -39,-182 -40,-205 -10,-237 33,-35 71,-37 92,-4 9,13 27,77 40,143 13,65 33,152 44,194 12,42 27,116 34,165 l 13,89 47,3 47,3 v 52 52 l -423,88 c -232,48 -425,87 -429,87 -5,0 -8,-24 -8,-53 z m 553,-163 88,-6 -7,-77 c -3,-42 -12,-87 -18,-101 -13,-29 -28,-30 -141,-9 l -70,13 15,98 c 12,79 17,97 30,94 8,-3 55,-8 103,-12 z"
       id="path164"
       style="fill:#ff0000;stroke-width:8.54698277"
       inkscape:connector-curvature="0" />
    <path
       d="m 12164,17285 c -3,-25 -5,-47 -3,-49 2,-1 67,-24 144,-50 77,-27 142,-50 143,-51 2,-2 -13,-47 -35,-99 -24,-61 -43,-96 -53,-96 -8,0 -33,30 -56,68 -32,53 -46,68 -68,70 -49,6 -59,-13 -53,-98 4,-56 21,-119 66,-250 34,-96 61,-185 61,-198 0,-12 6,-25 14,-28 16,-6 123,23 131,36 3,5 -22,70 -55,146 -33,75 -60,138 -60,139 0,1 32,6 70,9 94,10 110,26 146,145 l 28,93 44,-6 c 57,-8 72,5 72,58 v 42 l -254,82 c -140,45 -259,82 -265,82 -5,0 -13,-20 -17,-45 z"
       id="path166"
       style="fill:#ff0000;stroke-width:8.54698277"
       inkscape:connector-curvature="0" />
    <path
       d="m 7525,17308 c -217,-77 -694,-272 -742,-304 -40,-25 -25,-84 21,-84 12,0 86,25 166,55 80,30 150,55 157,55 15,0 28,-39 16,-50 -4,-4 -44,-23 -87,-41 -106,-43 -156,-88 -156,-139 0,-51 34,-91 105,-121 l 55,-24 v -53 c 0,-64 11,-87 52,-108 38,-20 138,-53 159,-54 8,0 85,52 170,115 l 154,116 21,-58 c 12,-32 23,-57 25,-57 2,1 27,5 54,8 28,4 57,11 64,15 10,7 -11,74 -94,297 -60,159 -110,296 -112,305 -3,11 5,20 25,27 30,10 30,11 21,53 -15,65 -17,67 -74,47 z m -52,-322 c 31,-85 57,-160 57,-168 0,-23 -94,-152 -136,-186 -67,-56 -173,-64 -188,-14 -15,45 45,112 101,112 31,0 36,15 18,50 -22,42 -33,44 -96,20 -83,-32 -137,-42 -159,-30 -11,6 -20,15 -20,20 0,6 54,37 119,70 66,32 122,64 125,69 4,5 -1,38 -9,73 -22,95 -23,92 53,116 37,11 70,21 73,21 3,1 31,-68 62,-153 z"
       id="path168"
       style="fill:#ff0000;stroke-width:8.54698277"
       inkscape:connector-curvature="0" />
    <path
       d="m 6160,17075 c -32,-34 -26,-39 145,-110 77,-32 155,-64 174,-72 l 34,-14 -64,-37 c -51,-30 -65,-43 -67,-65 -6,-47 14,-60 80,-53 l 57,7 141,-281 c 77,-154 143,-280 147,-280 5,0 69,49 107,81 4,4 -55,131 -133,281 l -140,275 34,16 34,16 -15,38 c -24,57 -30,61 -87,61 -45,0 -72,11 -209,81 -89,46 -169,81 -186,81 -18,0 -38,-10 -52,-25 z"
       id="path170"
       style="fill:#ff0000;stroke-width:8.54698277"
       inkscape:connector-curvature="0" />
    <path
       d="m 12771,17049 c -29,-29 -31,-35 -31,-105 0,-42 5,-84 10,-95 13,-24 61,-49 94,-49 34,0 45,47 19,90 -20,35 -12,57 28,77 48,25 92,-32 86,-110 -8,-93 -81,-132 -198,-108 -46,10 -56,16 -69,44 -19,41 -70,74 -125,83 -60,9 -67,2 -48,-52 15,-46 40,-64 84,-64 14,0 19,7 19,27 v 27 l 31,-30 30,-29 -28,-5 c -26,-5 -28,-8 -28,-55 1,-100 81,-221 178,-269 45,-23 63,-26 159,-26 63,0 108,-4 108,-10 0,-5 -16,-38 -35,-73 -19,-35 -35,-75 -35,-89 0,-35 31,-60 82,-65 l 43,-5 138,277 c 151,304 133,281 206,263 8,-2 18,14 26,39 l 13,43 -135,71 c -74,39 -138,67 -142,63 -70,-85 -70,-97 0,-108 45,-7 46,-12 19,-91 -42,-123 -115,-184 -243,-205 -99,-15 -154,-4 -199,40 -21,21 -38,47 -38,57 0,18 9,21 83,26 110,9 155,23 194,62 33,33 33,34 33,129 0,113 -12,148 -65,195 -53,46 -94,61 -169,61 -59,0 -67,-3 -95,-31 z"
       id="path172"
       style="fill:#ff0000;stroke-width:8.54698277"
       inkscape:connector-curvature="0" />
    <path
       d="m 5792,16873 c -11,-26 -18,-51 -14,-54 4,-3 84,-32 177,-63 94,-32 176,-61 184,-66 9,-5 -54,-44 -183,-115 -108,-59 -206,-115 -217,-124 l -21,-17 21,-42 21,-41 46,19 c 25,11 47,20 49,20 2,0 23,-36 45,-80 73,-138 143,-197 258,-216 l 41,-6 -59,-81 c -33,-44 -57,-84 -54,-89 11,-17 66,-39 92,-36 22,2 35,18 71,78 96,166 126,214 136,217 6,2 29,-35 53,-82 l 42,-85 52,21 c 29,12 59,23 66,26 6,3 12,9 12,15 0,5 -68,138 -151,295 -152,287 -158,302 -111,303 16,0 15,12 -5,55 -16,33 -20,35 -63,35 -63,0 -111,16 -270,88 -74,34 -149,64 -166,68 -29,5 -32,3 -52,-43 z m 436,-384 c 49,-85 76,-169 67,-201 -11,-34 -54,-76 -86,-83 -57,-13 -117,43 -179,165 -50,99 -52,92 47,149 48,27 93,49 98,47 6,-1 29,-36 53,-77 z"
       id="path174"
       style="fill:#ff0000;stroke-width:8.54698277"
       inkscape:connector-curvature="0" />
    <path
       d="m 13527,16713 c -17,-42 -15,-45 43,-84 l 24,-15 -18,-45 c -10,-24 -57,-116 -105,-204 -158,-287 -170,-317 -136,-345 9,-7 37,-15 63,-17 l 47,-5 134,259 c 73,142 137,262 142,267 5,6 22,5 44,-1 l 36,-11 21,44 c 12,24 20,45 17,48 -11,10 -277,146 -286,146 -6,0 -18,-17 -26,-37 z"
       id="path176"
       style="fill:#ff0000;stroke-width:8.54698277"
       inkscape:connector-curvature="0" />
    <path
       d="m 9600,16634 c -284,-20 -632,-66 -900,-120 -2191,-437 -4046,-1987 -4875,-4074 -232,-583 -372,-1161 -442,-1825 -22,-214 -26,-974 -5,-1175 44,-429 92,-712 184,-1075 379,-1505 1303,-2853 2585,-3771 897,-643 1954,-1055 3043,-1188 304,-37 380,-41 810,-41 430,0 506,4 810,41 750,91 1497,319 2180,664 1258,637 2303,1682 2940,2940 375,743 599,1516 687,2380 25,247 25,979 0,1220 -70,669 -209,1245 -442,1830 -674,1696 -2039,3061 -3735,3735 -580,231 -1148,369 -1815,441 -143,15 -877,28 -1025,18 z m 899,-84 c 727,-43 1630,-286 2316,-625 751,-371 1244,-723 1810,-1289 545,-546 881,-1004 1231,-1681 348,-674 602,-1518 686,-2285 18,-163 18,-1140 0,-1310 -71,-676 -268,-1408 -547,-2031 -171,-383 -505,-943 -779,-1306 -606,-803 -1316,-1389 -2301,-1899 -702,-363 -1653,-628 -2415,-674 -215,-13 -845,-13 -1030,0 -268,19 -656,83 -976,160 -181,43 -810,249 -1009,330 -442,179 -990,491 -1390,790 -528,396 -1089,973 -1472,1515 -214,302 -484,779 -629,1110 -266,609 -471,1363 -536,1965 -18,174 -18,1176 0,1345 60,550 207,1143 427,1720 185,486 524,1092 862,1540 327,434 830,942 1277,1291 422,328 999,659 1506,862 647,260 1369,440 1890,471 189,12 882,12 1079,1 z"
       id="path178"
       style="fill:#ff0000;stroke-width:8.54698277"
       inkscape:connector-curvature="0" />
    <path
       d="m 10035,16103 c -27,-1 -183,-10 -345,-18 -162,-8 -326,-18 -364,-21 l -68,-6 -23,-52 c -12,-28 -32,-89 -44,-136 -45,-172 -72,-250 -97,-279 -30,-36 -87,-55 -214,-71 -90,-12 -152,-28 -619,-164 -162,-47 -305,-86 -317,-86 -14,0 -68,41 -151,116 -70,64 -147,129 -170,145 -80,56 -155,38 -422,-102 -256,-134 -692,-408 -783,-492 -35,-32 -38,-38 -33,-78 3,-24 9,-116 15,-204 6,-88 13,-190 16,-227 l 6,-67 -49,-52 c -26,-29 -128,-122 -227,-207 -124,-108 -211,-194 -285,-281 -158,-187 -260,-299 -289,-320 -27,-18 -31,-18 -287,15 l -260,33 -18,-21 c -23,-27 -330,-541 -432,-723 -122,-217 -195,-367 -195,-398 0,-40 24,-70 187,-240 107,-111 143,-154 143,-173 0,-14 -49,-200 -109,-412 -129,-456 -145,-520 -161,-630 -26,-187 -55,-231 -185,-277 -243,-86 -335,-126 -340,-148 -2,-12 -14,-110 -25,-218 -20,-182 -21,-215 -11,-455 12,-264 23,-399 42,-512 14,-80 51,-118 157,-163 89,-37 249,-79 301,-79 h 36 l 47,-187 c 79,-311 205,-757 243,-854 37,-97 45,-166 23,-216 -7,-15 -58,-102 -114,-193 -146,-239 -138,-222 -130,-263 28,-147 485,-887 640,-1036 l 36,-35 227,51 c 169,37 233,48 248,40 11,-5 135,-125 275,-267 140,-141 346,-337 457,-435 112,-98 203,-184 203,-192 0,-18 -21,-61 -108,-220 -89,-160 -96,-192 -56,-234 133,-141 862,-579 991,-596 54,-7 111,24 318,172 88,63 163,115 166,115 4,0 35,-11 70,-24 316,-118 884,-266 1023,-266 h 42 l 18,-58 c 52,-165 180,-399 234,-426 105,-52 666,-92 952,-67 175,15 314,37 350,56 23,12 49,55 128,218 55,111 106,218 112,238 l 13,36 106,6 c 121,6 452,67 556,102 38,13 159,64 267,114 108,50 208,91 221,91 13,0 82,-37 153,-82 277,-175 336,-208 371,-208 42,0 206,77 448,210 208,113 267,153 465,310 85,68 172,134 193,148 20,13 37,28 37,33 0,4 -38,71 -85,149 -47,78 -85,146 -85,153 0,6 204,215 453,464 l 452,452 50,-10 c 28,-5 109,-25 180,-45 72,-20 157,-39 191,-41 l 61,-6 55,69 c 82,102 283,396 530,773 168,256 218,338 211,352 -4,9 -73,90 -152,178 -163,182 -211,245 -211,277 0,12 45,162 100,334 116,361 193,639 217,790 l 18,107 243,162 c 168,112 242,167 238,176 -3,8 2,94 10,192 12,129 14,235 10,383 -7,234 -40,671 -51,690 -10,16 -82,47 -275,122 -231,88 -246,102 -275,240 -46,217 -140,570 -184,690 -27,75 -57,169 -65,210 -14,67 -14,75 3,113 10,22 59,91 109,154 109,137 152,213 152,269 0,77 -212,460 -465,842 -67,102 -140,206 -161,232 -37,46 -41,48 -89,48 -27,0 -97,-11 -154,-25 -57,-14 -149,-28 -205,-31 l -101,-6 -262,245 c -294,275 -543,502 -588,535 l -31,22 24,271 24,271 -29,30 c -66,70 -442,301 -748,459 -191,99 -310,149 -352,149 -41,0 -111,-45 -258,-164 -167,-136 -172,-138 -271,-126 -89,11 -155,29 -419,111 -243,75 -332,95 -480,109 -136,13 -173,26 -202,66 -11,16 -66,119 -122,229 -55,110 -108,209 -116,220 -13,16 -36,21 -153,31 -131,12 -238,14 -347,7 z m 175,-1093 c 336,-16 627,-64 945,-156 789,-227 1579,-710 2241,-1369 708,-705 1330,-1759 1542,-2610 75,-299 92,-443 99,-840 13,-758 -48,-1243 -223,-1770 -113,-343 -311,-783 -436,-969 -183,-273 -411,-539 -729,-851 -170,-167 -408,-372 -468,-404 -17,-10 -23,-8 -35,11 -10,17 -752,1248 -782,1299 -2,4 118,123 267,265 149,143 278,273 286,289 9,17 82,131 163,255 164,250 231,376 313,590 170,442 234,868 225,1476 -5,255 -8,307 -32,439 -96,547 -324,1049 -744,1640 -89,124 -142,185 -312,356 -289,289 -376,361 -699,570 -230,148 -284,176 -549,283 -117,47 -230,95 -252,106 -21,11 -67,24 -102,29 -35,5 -138,28 -230,51 l -166,41 -549,-3 c -547,-4 -548,-4 -684,-31 -273,-54 -514,-136 -799,-274 -411,-198 -736,-426 -1007,-706 -508,-527 -786,-1027 -885,-1592 -26,-151 -37,-629 -18,-784 47,-378 219,-918 388,-1216 87,-154 298,-456 461,-660 161,-201 361,-390 443,-417 7,-3 -986,-1951 -1008,-1977 -12,-14 -443,388 -605,563 -164,179 -575,763 -720,1026 -225,407 -455,1074 -543,1578 -40,225 -49,411 -43,837 5,301 10,411 26,530 57,419 150,745 388,1345 114,289 188,440 306,627 302,481 805,1033 1272,1398 278,217 740,485 1095,636 180,76 534,195 741,249 510,132 864,167 1419,140 z m 37,-1440 c 565,-31 1059,-194 1518,-499 430,-286 770,-628 1070,-1076 193,-289 334,-557 433,-825 143,-386 180,-641 169,-1180 -7,-313 -21,-463 -63,-670 -72,-348 -230,-750 -394,-999 -171,-261 -455,-593 -634,-743 -48,-40 -61,-47 -71,-36 -7,7 -178,288 -380,625 l -368,612 40,68 c 164,277 267,580 328,973 26,160 32,606 11,727 -53,305 -272,753 -494,1009 -225,261 -592,490 -917,573 -162,41 -260,51 -507,51 -265,0 -392,-13 -572,-60 -213,-55 -385,-129 -546,-234 -224,-147 -464,-431 -600,-711 -109,-225 -130,-329 -130,-652 0,-358 29,-470 194,-758 76,-133 106,-175 184,-256 50,-54 92,-102 92,-108 0,-6 -140,-276 -311,-601 l -311,-590 -30,18 c -100,58 -465,424 -560,562 -274,396 -470,825 -573,1254 -104,433 -105,832 -5,1220 205,795 857,1561 1690,1985 536,273 1013,361 1737,321 z m 53,-1576 c 754,-129 1390,-847 1449,-1635 28,-371 -82,-908 -266,-1299 l -44,-95 -33,39 c -45,53 -127,185 -302,487 -80,140 -184,320 -231,401 -96,165 -90,137 -78,368 8,148 -2,207 -51,317 -63,144 -216,327 -369,441 -74,55 -249,146 -301,157 l -31,6 -6,87 c -10,166 -136,466 -242,578 -57,61 -80,65 -63,11 15,-48 12,-212 -6,-301 -9,-44 -32,-141 -52,-215 l -37,-136 -67,-17 c -88,-21 -234,-92 -346,-166 -91,-61 -184,-141 -184,-158 0,-5 26,-38 58,-73 l 57,-63 106,85 c 59,46 127,94 152,106 53,26 117,38 117,23 0,-5 -19,-56 -42,-113 l -43,-104 -3,-212 c -3,-192 -1,-220 18,-290 12,-43 25,-97 29,-120 l 8,-42 -266,-3 c -146,-2 -273,-7 -281,-11 -8,-4 -67,-108 -130,-232 -63,-124 -119,-225 -124,-225 -18,0 -116,109 -160,177 -123,192 -206,422 -225,625 -5,49 -5,142 0,207 24,350 158,661 387,903 296,311 694,483 1187,512 102,6 326,-5 415,-20 z m -388,-661 c 18,-74 22,-118 22,-278 l 1,-190 -39,-110 c -83,-235 -239,-605 -256,-605 -4,0 -14,8 -23,18 -78,86 -100,395 -43,594 14,47 63,169 110,270 89,196 140,340 152,428 l 7,53 24,-46 c 13,-26 33,-86 45,-134 z m 225,-371 c 174,-90 391,-321 456,-485 17,-44 21,-80 25,-224 l 4,-172 -419,6 c -230,3 -420,7 -422,9 -3,3 276,870 286,887 6,11 14,9 70,-21 z m 906,-1640 c 158,-286 287,-523 287,-527 0,-26 -148,-223 -234,-313 -348,-361 -847,-610 -1391,-693 -204,-32 -616,-32 -789,0 -140,25 -306,78 -463,149 -115,51 -283,139 -283,148 0,2 134,266 297,585 233,455 300,578 312,574 9,-4 78,-45 154,-92 147,-91 231,-130 361,-166 72,-19 104,-22 281,-21 173,0 211,3 277,22 165,45 330,125 464,225 208,155 376,397 400,575 5,39 11,52 23,52 11,0 106,-161 304,-518 z m -1976,362 c 87,-56 268,-140 368,-170 87,-27 99,-28 366,-32 l 277,-3 78,27 c 44,14 102,38 129,52 59,29 158,104 179,134 9,12 18,19 21,16 7,-6 -129,-210 -181,-271 -83,-99 -254,-200 -444,-263 -82,-27 -92,-28 -280,-28 -271,1 -353,25 -546,160 -52,36 -115,74 -139,85 l -45,20 78,154 c 42,85 78,155 79,155 2,0 28,-16 60,-36 z m 2531,-1354 c 82,-146 363,-638 624,-1095 816,-1427 1108,-1951 1108,-1991 0,-41 -105,-120 -328,-248 -192,-110 -487,-266 -503,-266 -8,0 -90,54 -184,120 -197,138 -282,190 -309,190 -11,0 -152,-56 -315,-125 -163,-68 -339,-135 -391,-149 -129,-34 -366,-81 -530,-105 -74,-10 -136,-23 -137,-28 -2,-4 -47,-111 -101,-238 l -98,-230 -154,-22 c -85,-12 -189,-22 -230,-23 -92,0 -600,39 -618,48 -7,4 -62,110 -121,237 l -107,230 -40,6 c -21,4 -75,12 -119,18 -129,18 -259,55 -610,171 -385,127 -494,158 -592,167 l -72,6 -58,-55 c -135,-126 -252,-217 -307,-238 -37,-14 -126,13 -221,66 -105,59 -533,369 -534,387 -1,8 1407,2727 1420,2741 12,13 86,-14 281,-103 200,-91 333,-142 450,-173 76,-20 113,-22 450,-25 399,-5 474,1 705,53 146,32 374,107 517,170 122,53 369,204 491,299 46,36 123,109 173,162 49,54 135,149 192,211 56,62 106,110 111,105 4,-4 75,-127 157,-273 z"
       id="path180"
       style="fill:#ff0000;stroke-width:8.54698277"
       inkscape:connector-curvature="0" />
    <path
       d="m 10053,7100 c -120,-40 -206,-62 -255,-66 -86,-8 -117,-24 -177,-95 -96,-112 -184,-291 -232,-470 -33,-123 -33,-315 -1,-416 29,-86 75,-159 121,-190 29,-20 47,-23 128,-23 106,0 165,20 208,72 32,38 39,66 32,139 -9,107 -53,136 -123,83 -31,-24 -34,-31 -34,-78 0,-64 -17,-89 -59,-89 -23,0 -42,9 -63,31 -27,26 -32,40 -36,90 -8,109 41,252 107,316 41,40 75,37 113,-8 16,-20 35,-36 41,-36 7,0 29,11 49,25 20,14 39,25 41,25 3,0 8,-12 12,-27 22,-91 117,-80 145,18 6,19 10,89 10,156 0,121 0,123 -23,123 -35,0 -66,-27 -72,-64 -8,-38 -40,-96 -54,-96 -5,0 13,69 40,153 27,83 49,155 49,160 0,4 -26,7 -57,7 -42,0 -68,-6 -93,-22 -19,-11 -50,-24 -69,-29 l -33,-7 28,30 c 50,52 119,81 201,82 41,1 77,-4 83,-10 6,-6 15,-37 19,-68 4,-31 16,-65 26,-76 19,-20 19,-26 2,-213 -10,-106 -17,-199 -17,-208 0,-9 18,-37 41,-63 36,-40 38,-47 22,-52 -39,-12 -48,-22 -51,-57 -4,-51 20,-92 70,-115 62,-29 110,-35 133,-18 18,13 20,28 21,153 0,76 4,279 9,451 l 8,312 -22,24 c -18,19 -20,28 -12,49 5,14 15,28 20,32 20,12 13,83 -11,105 -35,32 -87,25 -285,-40 z"
       id="path182"
       style="fill:#ff0000;stroke-width:8.54698277"
       inkscape:connector-curvature="0" />
    <path
       d="m 10433,6934 c -25,-25 -25,-28 -21,-127 3,-56 -1,-176 -8,-267 -26,-310 -29,-488 -11,-551 17,-57 62,-118 76,-103 24,26 52,873 35,1022 -8,61 -28,69 -71,26 z"
       id="path184"
       style="fill:#ff0000;stroke-width:8.54698277"
       inkscape:connector-curvature="0" />
    <path
       d="m 8113,6696 c -109,-24 -140,-42 -170,-101 -9,-16 -42,-67 -74,-112 -93,-128 -149,-225 -149,-255 0,-23 17,-43 94,-109 57,-50 105,-101 120,-128 39,-71 66,-99 126,-129 44,-22 57,-34 66,-62 13,-39 18,-36 -88,-54 -37,-7 -38,-8 -38,-51 0,-64 52,-158 118,-212 l 53,-43 h 103 103 l 32,-45 c 56,-78 66,-64 76,110 10,165 4,155 90,155 137,0 265,58 265,120 0,24 -8,34 -42,53 -24,14 -68,33 -98,42 -30,10 -58,20 -63,22 -4,2 8,23 28,46 29,34 35,48 35,88 0,39 4,49 20,54 11,4 34,18 50,32 29,24 30,28 30,109 0,77 -3,91 -35,154 -19,37 -42,97 -52,132 -9,35 -21,69 -26,76 -6,7 -33,12 -67,12 -54,0 -61,3 -108,45 -28,25 -66,52 -86,60 -51,22 -191,18 -313,-9 z m -44,-154 c -14,-93 -50,-149 -99,-154 -18,-2 -28,4 -38,24 -11,24 -11,33 7,72 20,46 89,106 121,106 15,0 16,-7 9,-48 z m 439,-29 c 17,-38 28,-81 30,-123 l 4,-65 -27,25 c -57,53 -108,178 -83,207 24,29 49,14 76,-44 z m -286,-12 c 3,-3 10,-23 13,-43 7,-36 6,-38 -19,-38 -17,0 -42,-14 -70,-40 -43,-40 -44,-40 -66,-22 -21,17 -22,19 -6,57 19,45 52,83 81,95 20,8 54,4 67,-9 z m 494,-159 c 30,-68 52,-128 49,-132 -6,-10 -52,2 -82,21 -33,20 -64,84 -73,151 -10,68 -1,91 33,86 15,-2 33,-34 73,-126 z m -768,-71 c 32,-15 34,-18 29,-59 -3,-24 -12,-51 -20,-59 -30,-31 -143,42 -149,97 -6,49 61,59 140,21 z m 672,-146 c 0,-68 -2,-77 -30,-108 -47,-54 -204,-113 -346,-130 l -41,-5 8,37 c 11,50 43,74 145,105 90,28 112,45 172,125 13,17 38,35 55,40 18,5 33,10 35,10 1,1 2,-33 2,-74 z"
       id="path186"
       style="fill:#ff0000;stroke-width:8.54698277"
       inkscape:connector-curvature="0" />
    <path
       d="m 11654,6585 c -23,-20 -41,-24 -90,-25 -70,0 -174,-36 -214,-75 -27,-25 -27,-25 -96,-11 -38,8 -70,13 -72,11 -9,-9 -22,-86 -22,-136 0,-61 19,-99 85,-169 66,-71 69,-113 10,-170 -38,-37 -45,-74 -17,-89 25,-13 196,-49 273,-57 l 66,-6 50,-132 c 45,-118 52,-131 74,-131 26,0 31,18 44,168 l 7,77 56,39 c 98,66 116,72 211,74 102,2 121,12 121,66 0,30 -8,44 -40,76 -47,45 -46,52 11,140 54,85 69,126 69,190 v 55 h -49 c -70,0 -99,13 -103,47 l -3,28 -139,3 c -130,2 -142,4 -171,27 l -32,23 z m -83,-163 c 6,-14 14,-59 19,-100 11,-81 2,-112 -30,-112 -33,0 -69,200 -41,234 16,20 40,10 52,-22 z"
       id="path188"
       style="fill:#ff0000;stroke-width:8.54698277"
       inkscape:connector-curvature="0" />
    <path
       d="m 13865,16529 c -9,-42 25,-77 152,-153 161,-98 230,-145 246,-170 15,-23 15,-26 -13,-61 -16,-20 -30,-41 -32,-47 -2,-6 -91,37 -197,96 -107,58 -200,106 -207,106 -18,0 -20,-190 -3,-241 21,-63 30,-65 86,-15 28,26 56,46 62,46 10,0 131,-71 158,-92 8,-7 -15,-54 -87,-173 l -98,-163 53,-36 54,-36 177,261 178,260 38,-6 c 75,-13 92,41 31,96 -112,101 -527,359 -577,359 -8,0 -17,-14 -21,-31 z"
       id="path190"
       style="fill:#ff0000;stroke-width:8.54698277"
       inkscape:connector-curvature="0" />
    <path
       d="m 4854,15780 c -153,-132 -280,-243 -281,-247 -2,-5 12,-26 30,-47 l 34,-39 82,62 c 79,60 83,62 116,51 44,-15 95,-62 95,-89 0,-31 -23,-81 -55,-119 l -28,-33 24,-26 c 42,-45 95,-63 190,-63 72,0 93,4 137,26 54,27 112,86 134,136 7,15 16,28 19,28 4,0 30,-25 58,-56 l 51,-56 38,30 c 88,70 101,41 -138,307 l -213,237 23,30 22,29 -28,40 c -14,21 -28,39 -29,39 -1,0 -128,-108 -281,-240 z m 252,-52 c 116,-126 144,-168 144,-219 0,-83 -73,-152 -164,-153 l -41,-1 4,91 c 4,108 -6,133 -76,193 l -48,40 55,56 c 30,30 57,55 61,55 4,0 33,-28 65,-62 z"
       id="path192"
       style="fill:#ff0000;stroke-width:8.54698277"
       inkscape:connector-curvature="0" />
    <path
       d="m 15275,15781 c -16,-10 -41,-31 -55,-46 -14,-15 -37,-36 -53,-47 -27,-19 -27,-19 -61,1 l -34,21 -30,-37 -30,-38 33,-39 33,-40 -223,-230 -223,-230 45,-53 c 26,-30 49,-52 53,-51 3,2 107,107 230,235 l 223,232 25,-20 c 26,-20 29,-20 79,24 l 22,19 -31,39 c -28,35 -30,41 -19,67 7,17 26,43 42,58 27,26 37,29 94,29 57,0 67,-4 95,-30 50,-48 65,-80 128,-266 66,-193 97,-262 136,-298 l 26,-24 v 54 c 0,30 -7,91 -14,136 -48,272 -165,482 -300,538 -51,22 -154,19 -191,-4 z"
       id="path194"
       style="fill:#ff0000;stroke-width:8.54698277"
       inkscape:connector-curvature="0" />
    <path
       d="m 4045,15464 c -45,-23 -103,-83 -125,-129 -27,-55 -27,-157 -2,-205 14,-26 38,-45 93,-73 41,-22 75,-40 76,-41 1,-1 -65,-82 -147,-181 -83,-98 -150,-181 -150,-184 0,-3 15,-23 33,-44 l 32,-39 175,200 174,200 38,-31 38,-30 -33,-42 c -201,-264 -187,-241 -187,-299 0,-49 4,-59 46,-110 52,-63 47,-61 198,-77 111,-11 221,-6 243,13 7,6 13,32 13,58 v 48 l -142,4 c -149,4 -182,12 -222,57 -18,20 -18,21 3,63 23,47 110,154 154,188 l 28,22 27,-24 c 15,-13 77,-69 137,-123 61,-55 119,-108 131,-118 21,-17 22,-16 67,36 l 46,54 -243,210 -244,210 23,29 23,29 -41,48 -41,49 -15,-33 c -21,-43 -58,-61 -110,-53 -87,14 -127,62 -118,142 12,113 119,134 292,57 l 58,-25 -19,-23 c -10,-12 -29,-34 -42,-48 l -23,-26 37,-31 37,-31 39,30 c 21,17 40,35 44,40 3,6 22,-9 42,-33 61,-74 304,-317 358,-359 64,-49 93,-50 129,-4 14,20 25,40 23,45 -2,5 -100,110 -220,233 l -216,223 24,31 24,31 -37,31 -37,30 -33,-25 c -30,-23 -35,-24 -60,-10 -16,7 -57,23 -92,35 -82,27 -259,30 -306,5 z"
       id="path196"
       style="fill:#ff0000;stroke-width:8.54698277"
       inkscape:connector-curvature="0" />
    <path
       d="m 15287,15442 -27,-28 159,-169 159,-169 -26,-32 c -15,-18 -30,-33 -34,-33 -5,-1 -41,30 -80,68 -102,96 -142,121 -194,121 -55,0 -83,-11 -128,-51 -60,-52 -79,-100 -74,-183 6,-84 25,-127 102,-220 l 55,-67 -20,-52 c -12,-29 -23,-57 -25,-62 -3,-6 17,-32 44,-58 57,-56 61,-54 87,46 16,59 21,67 42,67 36,0 90,26 102,48 19,35 14,109 -9,132 -28,28 -102,27 -137,0 -23,-18 -29,-19 -47,-7 -33,21 -67,98 -68,156 -2,56 20,96 62,118 37,18 66,0 187,-119 l 113,-110 70,62 c 39,34 73,66 76,71 3,5 28,-11 56,-35 l 51,-45 34,26 34,26 -33,34 c -18,19 -139,138 -269,264 l -236,228 z"
       id="path198"
       style="fill:#ff0000;stroke-width:8.54698277"
       inkscape:connector-curvature="0" />
    <path
       d="m 15842,14837 -32,-33 186,-216 186,-217 29,21 c 16,12 29,26 29,30 0,8 -304,382 -349,431 -16,16 -18,16 -49,-16 z"
       id="path200"
       style="fill:#ff0000;stroke-width:8.54698277"
       inkscape:connector-curvature="0" />
    <path
       d="m 3676,14486 c -73,-97 -216,-309 -251,-369 -30,-53 -27,-66 27,-88 29,-12 32,-11 47,11 9,13 56,82 104,152 l 88,129 31,-18 c 17,-10 49,-34 71,-54 32,-27 40,-42 40,-68 0,-54 -30,-75 -118,-79 l -75,-4 v -59 -59 h 158 c 86,0 222,7 302,15 80,8 148,15 153,15 4,0 7,25 7,55 v 55 h -42 c -24,0 -96,-5 -162,-11 -65,-5 -120,-8 -123,-5 -2,2 3,18 11,35 10,18 16,55 16,95 0,60 -2,66 -32,91 -18,15 -55,40 -81,56 -61,37 -72,63 -44,108 l 20,34 -24,18 c -44,34 -64,25 -123,-55 z"
       id="path202"
       style="fill:#ff0000;stroke-width:8.54698277"
       inkscape:connector-curvature="0" />
    <path
       d="m 15625,14548 c -36,-19 -76,-62 -98,-103 -19,-35 -22,-56 -22,-162 0,-108 2,-125 21,-150 18,-24 29,-28 78,-31 31,-2 56,-1 56,1 0,2 -9,38 -20,80 -30,120 -6,224 58,248 81,31 170,-20 179,-103 l 5,-45 -48,-8 c -27,-4 -52,-9 -55,-10 -3,-2 -1,-31 5,-65 10,-59 11,-61 36,-56 14,3 55,9 92,12 56,6 73,4 107,-14 l 40,-21 31,37 c 16,20 29,41 27,46 -2,5 -33,20 -70,33 l -67,25 v 57 c 0,33 -8,73 -19,96 -23,51 -98,118 -149,133 -49,15 -160,15 -187,0 z"
       id="path204"
       style="fill:#ff0000;stroke-width:8.54698277"
       inkscape:connector-curvature="0" />
    <path
       d="m 16243,14329 c -24,-11 -43,-23 -43,-28 0,-4 78,-129 173,-277 95,-148 176,-274 180,-281 5,-7 -14,-26 -50,-51 l -57,-39 -63,46 c -58,42 -63,49 -63,84 0,41 -32,144 -57,186 -52,84 -98,111 -189,111 -108,0 -178,-55 -219,-169 -15,-45 -21,-199 -9,-260 6,-30 8,-31 59,-31 h 52 l 5,109 c 8,168 41,216 141,208 58,-5 94,-35 103,-86 3,-20 8,-48 10,-63 5,-27 4,-28 -33,-28 -51,0 -63,-14 -63,-72 v -48 h 70 c 99,0 169,-16 163,-38 -3,-9 -74,-66 -159,-127 -85,-60 -154,-113 -154,-117 0,-4 14,-30 31,-58 l 30,-49 37,24 c 20,13 142,91 271,174 l 234,149 31,-23 c 30,-23 32,-23 54,-5 12,10 22,22 22,27 0,14 -446,747 -456,749 -5,1 -28,-7 -51,-17 z"
       id="path206"
       style="fill:#ff0000;stroke-width:8.54698277"
       inkscape:connector-curvature="0" />
    <path
       d="m 3346,13988 c -45,-69 -144,-253 -140,-259 2,-4 21,-13 41,-20 35,-11 37,-11 67,26 l 31,37 280,-151 c 154,-83 283,-151 287,-151 13,0 49,81 46,103 -3,23 -101,85 -396,251 l -140,78 14,40 c 13,37 12,39 -9,47 -60,22 -66,22 -81,-1 z"
       id="path208"
       style="fill:#ff0000;stroke-width:8.54698277"
       inkscape:connector-curvature="0" />
    <path
       d="m 16742,13906 c -78,-36 -102,-101 -61,-170 23,-40 35,-38 79,9 60,65 115,66 175,5 31,-32 37,-45 37,-78 -1,-52 -23,-104 -74,-170 -53,-68 -75,-81 -87,-50 -5,13 -14,35 -19,50 -10,25 -12,26 -51,14 -22,-6 -42,-14 -45,-17 -3,-2 1,-31 8,-63 l 14,-59 -280,-136 -280,-136 6,-29 c 10,-49 45,-96 72,-96 26,0 244,107 434,213 l 115,64 17,-33 18,-33 37,15 c 61,25 67,35 47,77 l -17,36 51,56 c 28,31 68,89 88,129 35,72 36,77 33,167 -4,86 -7,98 -36,140 -49,70 -105,103 -183,106 -42,2 -77,-2 -98,-11 z"
       id="path210"
       style="fill:#ff0000;stroke-width:8.54698277"
       inkscape:connector-curvature="0" />
    <path
       d="m 3157,13659 c -57,-66 -109,-173 -105,-217 3,-33 6,-37 33,-40 22,-2 37,4 55,23 13,14 34,25 47,25 24,0 163,-65 163,-76 0,-16 -73,-143 -85,-147 -7,-3 -50,12 -96,34 -115,53 -163,53 -220,2 -53,-47 -69,-86 -69,-162 0,-53 3,-63 31,-90 23,-24 40,-31 68,-31 46,0 61,14 61,57 0,26 -4,33 -20,33 -18,0 -40,26 -40,49 0,6 9,20 19,30 17,17 25,18 58,9 21,-6 60,-21 87,-35 l 48,-24 -7,-56 c -4,-31 -9,-62 -12,-70 -4,-10 9,-13 56,-13 78,0 157,30 213,80 l 43,39 -52,51 c -46,45 -51,54 -43,75 13,34 50,105 54,105 2,0 66,-29 142,-65 76,-36 140,-62 143,-57 3,4 21,29 39,54 17,26 32,50 32,55 0,5 -126,71 -280,148 -195,98 -279,144 -275,153 3,8 8,31 11,51 5,34 4,39 -17,44 -40,11 -46,8 -82,-34 z"
       id="path212"
       style="fill:#ff0000;stroke-width:8.54698277"
       inkscape:connector-curvature="0" />
    <path
       d="m 2633,11065 c -44,-19 -118,-89 -137,-129 -24,-50 -22,-186 3,-234 19,-37 55,-75 101,-105 32,-22 178,-24 219,-3 38,20 99,90 122,140 26,57 25,147 -2,202 -23,49 -86,110 -135,130 -42,18 -129,17 -171,-1 z"
       id="path214"
       style="fill:#ff0000;stroke-width:8.54698277"
       inkscape:connector-curvature="0" />
    <path
       d="m 17525,11046 c -37,-16 -92,-77 -111,-122 -21,-51 -18,-150 7,-200 23,-49 86,-110 135,-130 51,-21 150,-18 200,7 113,54 173,199 129,306 -21,49 -80,120 -115,138 -37,19 -202,20 -245,1 z"
       id="path216"
       style="fill:#ff0000;stroke-width:8.54698277"
       inkscape:connector-curvature="0" />
    <path
       d="m 2588,8666 c -174,-33 -319,-64 -323,-68 -8,-8 5,-141 15,-158 7,-11 76,-2 334,41 l 326,54 -1,70 c -1,77 -9,117 -24,120 -6,2 -153,-25 -327,-59 z"
       id="path218"
       style="fill:#ff0000;stroke-width:8.54698277"
       inkscape:connector-curvature="0" />
    <path
       d="m 17066,8669 c -3,-17 -6,-53 -6,-80 0,-48 0,-48 38,-54 75,-11 260,-46 372,-70 63,-14 145,-25 181,-25 75,0 72,-5 84,102 7,54 6,57 -16,63 -37,8 -610,95 -629,95 -12,0 -20,-11 -24,-31 z"
       id="path220"
       style="fill:#ff0000;stroke-width:8.54698277"
       inkscape:connector-curvature="0" />
    <path
       d="m 2652,8325 c -177,-39 -325,-74 -328,-78 -8,-7 6,-150 16,-166 7,-12 77,4 385,85 11,3 -53,-66 -143,-153 l -163,-158 1,-50 c 0,-48 13,-122 23,-131 5,-6 648,136 659,145 11,9 -15,153 -28,158 -11,4 -293,-48 -349,-64 -11,-3 51,69 138,160 l 158,166 -20,76 c -11,42 -21,78 -23,79 -2,2 -148,-29 -326,-69 z"
       id="path222"
       style="fill:#ff0000;stroke-width:8.54698277"
       inkscape:connector-curvature="0" />
    <path
       d="m 17004,8368 c -9,-17 -19,-58 -21,-90 l -6,-58 h 37 c 20,0 62,-9 93,-20 32,-11 65,-20 75,-20 22,0 23,5 -4,-117 -13,-63 -26,-103 -34,-103 -6,0 -56,9 -109,20 -53,11 -103,20 -109,20 -15,0 -50,-160 -37,-173 14,-14 653,-149 663,-139 14,14 32,142 22,151 -5,4 -64,25 -131,46 l -122,38 5,61 c 14,155 41,170 214,120 50,-14 93,-24 96,-21 11,11 45,160 40,173 -3,9 -21,14 -45,14 -36,0 -156,29 -440,105 -51,14 -111,25 -132,25 -33,0 -41,-4 -55,-32 z"
       id="path224"
       style="fill:#ff0000;stroke-width:8.54698277"
       inkscape:connector-curvature="0" />
    <path
       d="m 3055,7690 c -55,-20 -198,-71 -317,-114 -249,-89 -231,-71 -198,-202 41,-162 132,-300 233,-351 109,-55 283,-9 410,107 118,108 122,155 38,413 -32,98 -60,179 -62,181 -2,1 -49,-14 -104,-34 z m 44,-255 c 11,-30 19,-60 17,-67 -3,-7 -7,-25 -10,-40 -15,-66 -95,-122 -198,-139 -106,-17 -144,9 -183,129 -9,29 -15,56 -12,58 7,7 338,113 354,114 6,0 21,-25 32,-55 z"
       id="path226"
       style="fill:#ff0000;stroke-width:8.54698277"
       inkscape:connector-curvature="0" />
    <path
       d="m 17319,7449 c -24,-74 -48,-137 -54,-142 -17,-12 -81,3 -289,70 -109,35 -204,62 -210,60 -13,-5 -53,-154 -44,-162 14,-14 631,-196 638,-188 15,15 142,465 133,474 -4,4 -36,11 -70,15 l -61,6 z"
       id="path228"
       style="fill:#ff0000;stroke-width:8.54698277"
       inkscape:connector-curvature="0" />
    <path
       d="m 16663,7168 c -6,-7 -53,-113 -106,-235 -65,-154 -92,-225 -84,-230 33,-22 613,-260 619,-255 19,20 208,466 200,474 -14,14 -124,40 -132,31 -3,-4 -33,-71 -64,-148 -32,-77 -59,-142 -61,-143 -3,-3 -122,36 -133,43 -1,1 25,67 59,145 58,137 60,144 43,158 -34,25 -94,53 -103,47 -5,-2 -35,-66 -67,-140 -36,-84 -62,-134 -70,-131 -6,2 -33,8 -58,11 -29,5 -45,12 -43,19 3,6 35,80 72,165 37,84 63,156 58,160 -4,4 -28,13 -52,20 -23,7 -49,15 -55,17 -7,3 -17,-1 -23,-8 z"
       id="path230"
       style="fill:#ff0000;stroke-width:8.54698277"
       inkscape:connector-curvature="0" />
    <path
       d="m 3090,6919 c -162,-71 -298,-133 -303,-138 -12,-12 48,-167 64,-163 20,5 604,254 611,261 8,7 -56,164 -68,168 -5,1 -142,-56 -304,-128 z"
       id="path232"
       style="fill:#ff0000;stroke-width:8.54698277"
       inkscape:connector-curvature="0" />
    <path
       d="m 3220,6540 c -179,-22 -326,-39 -327,-39 0,-1 13,-37 30,-81 l 32,-80 h 70 71 l 49,-99 49,-100 -49,-43 -48,-44 36,-71 c 20,-39 41,-75 47,-78 14,-9 500,473 500,495 0,8 -12,52 -27,98 l -28,82 -40,-1 c -22,-1 -186,-18 -365,-39 z m 240,-136 c 0,-15 -125,-134 -141,-134 -12,0 -28,18 -45,51 -34,67 -37,66 136,82 19,2 38,5 43,5 4,1 7,-1 7,-4 z"
       id="path234"
       style="fill:#ff0000;stroke-width:8.54698277"
       inkscape:connector-curvature="0" />
    <path
       d="m 16425,6497 c -85,-42 -156,-129 -240,-297 -38,-75 -45,-96 -34,-102 8,-5 70,-41 139,-82 69,-40 185,-109 259,-154 73,-45 142,-82 153,-82 40,0 122,115 185,259 27,63 33,88 33,149 0,91 -16,129 -87,200 -76,76 -184,126 -283,130 -63,2 -83,-1 -125,-21 z m 196,-188 c 101,-51 145,-107 133,-170 -7,-35 -50,-129 -59,-129 -9,0 -309,161 -320,171 -20,20 38,132 79,150 33,14 119,3 167,-22 z"
       id="path236"
       style="fill:#ff0000;stroke-width:8.54698277"
       inkscape:connector-curvature="0" />
    <path
       d="m 3545,5984 c -154,-96 -281,-178 -283,-183 -2,-7 67,-131 83,-149 2,-2 72,42 155,98 83,56 153,100 155,98 2,-2 -35,-84 -82,-183 -47,-99 -87,-194 -90,-210 -4,-26 3,-39 42,-83 30,-33 55,-52 69,-52 32,0 546,336 546,357 0,10 -60,100 -74,113 -13,10 -90,-33 -320,-178 l -39,-24 20,33 c 94,155 193,356 193,389 0,19 -79,151 -89,149 -3,0 -132,-79 -286,-175 z"
       id="path238"
       style="fill:#ff0000;stroke-width:8.54698277"
       inkscape:connector-curvature="0" />
    <path
       d="m 15893,5755 c -29,-36 -53,-70 -53,-76 0,-6 29,-65 65,-130 36,-65 65,-120 65,-122 0,-6 -110,11 -150,23 -19,5 -56,10 -81,10 -40,0 -51,-5 -75,-33 -40,-45 -71,-116 -56,-126 6,-4 111,-15 232,-24 l 221,-17 106,-80 c 58,-44 109,-80 112,-80 6,0 81,144 81,155 0,3 -22,16 -48,29 -93,47 -154,128 -258,343 -52,106 -97,193 -101,193 -5,0 -32,-30 -60,-65 z"
       id="path240"
       style="fill:#ff0000;stroke-width:8.54698277"
       inkscape:connector-curvature="0" />
    <path
       d="m 4279,5254 c -111,-79 -261,-199 -341,-273 -39,-36 -58,-61 -58,-77 0,-25 74,-104 97,-104 15,0 523,410 523,422 0,20 -84,98 -105,98 -12,0 -64,-30 -116,-66 z"
       id="path242"
       style="fill:#ff0000;stroke-width:8.54698277"
       inkscape:connector-curvature="0" />
    <path
       d="m 15510,5191 c -91,-30 -178,-102 -211,-174 -15,-33 -19,-66 -19,-158 0,-104 2,-120 26,-167 33,-67 100,-126 194,-171 70,-34 81,-36 171,-36 89,0 99,2 145,30 65,41 114,131 121,229 3,36 8,66 12,66 3,-1 17,-7 31,-15 14,-8 28,-14 32,-15 10,0 58,71 58,86 0,12 -255,230 -265,227 -3,-1 -51,-52 -105,-114 -112,-127 -110,-116 -28,-181 l 37,-29 33,50 c 23,35 40,51 55,51 61,0 47,-116 -22,-180 -54,-51 -205,-23 -283,53 -48,45 -65,84 -65,144 0,85 49,135 145,148 46,7 52,11 99,73 30,40 46,69 40,75 -12,12 -169,19 -201,8 z"
       id="path244"
       style="fill:#ff0000;stroke-width:8.54698277"
       inkscape:connector-curvature="0" />
    <path
       d="m 4360,4904 c -113,-107 -220,-209 -238,-227 l -32,-32 56,-68 57,-67 143,136 c 83,79 144,130 144,120 0,-9 -25,-89 -55,-178 -76,-224 -74,-267 21,-341 l 47,-37 239,232 c 131,127 240,234 242,237 2,3 -21,34 -52,69 l -57,62 -142,-136 c -79,-74 -143,-134 -143,-132 0,2 32,98 70,213 l 71,210 -73,67 c -40,37 -77,67 -83,67 -5,0 -102,-88 -215,-195 z"
       id="path246"
       style="fill:#ff0000;stroke-width:8.54698277"
       inkscape:connector-curvature="0" />
    <path
       d="m 14943,4621 c -141,-48 -222,-177 -210,-335 7,-101 38,-175 104,-246 74,-80 141,-112 249,-118 72,-4 89,-1 138,21 68,32 149,106 187,172 26,45 29,59 29,140 0,79 -4,98 -30,153 -37,78 -126,173 -193,207 -43,21 -65,25 -136,25 -56,-1 -104,-7 -138,-19 z m 132,-152 c 83,-23 171,-111 194,-194 22,-81 -25,-163 -108,-185 -35,-9 -48,-8 -86,9 -79,35 -169,141 -188,222 -9,34 33,98 86,133 47,30 48,30 102,15 z"
       id="path248"
       style="fill:#ff0000;stroke-width:8.54698277"
       inkscape:connector-curvature="0" />
    <path
       d="m 4982,4505 c -17,-8 -43,-26 -57,-41 -23,-25 -25,-35 -25,-118 0,-103 9,-128 85,-245 51,-79 60,-120 33,-148 -15,-14 -20,-14 -62,6 -24,12 -60,39 -80,61 -36,40 -37,50 -12,126 5,18 -4,31 -49,69 l -56,48 -25,-24 c -38,-36 -54,-72 -54,-126 0,-131 193,-313 332,-313 63,0 106,18 152,65 l 38,38 -4,91 -3,92 -57,90 c -70,111 -80,136 -68,169 15,39 64,38 115,-2 32,-26 35,-32 35,-83 0,-52 3,-59 38,-91 83,-77 78,-76 101,-38 29,47 29,154 0,210 -29,58 -101,126 -162,155 -60,28 -161,32 -215,9 z"
       id="path250"
       style="fill:#ff0000;stroke-width:8.54698277"
       inkscape:connector-curvature="0" />
    <path
       d="m 5472,4167 -42,-43 70,-69 c 39,-38 70,-73 70,-78 0,-7 -216,-312 -293,-414 -6,-8 12,-27 60,-62 37,-28 71,-50 74,-48 4,1 78,94 165,207 86,113 159,207 160,209 2,2 36,-16 76,-40 40,-24 76,-45 80,-47 4,-2 23,21 42,50 28,41 33,55 23,64 -11,10 -405,289 -433,306 -6,4 -29,-12 -52,-35 z"
       id="path252"
       style="fill:#ff0000;stroke-width:8.54698277"
       inkscape:connector-curvature="0" />
    <path
       d="m 14248,4033 c -37,-30 -55,-50 -49,-57 4,-6 97,-127 206,-268 108,-142 200,-258 204,-258 9,0 374,307 385,324 7,10 -3,28 -33,64 l -43,51 -117,-91 c -64,-51 -121,-95 -127,-100 -8,-6 -68,57 -180,187 -92,107 -173,195 -179,195 -5,-1 -36,-22 -67,-47 z"
       id="path254"
       style="fill:#ff0000;stroke-width:8.54698277"
       inkscape:connector-curvature="0" />
    <path
       d="m 5930,3654 c -269,-426 -260,-400 -165,-451 33,-18 63,-31 67,-30 9,2 368,555 368,566 0,7 -145,81 -158,81 -4,0 -54,-75 -112,-166 z"
       id="path256"
       style="fill:#ff0000;stroke-width:8.54698277"
       inkscape:connector-curvature="0" />
    <path
       d="m 13861,3794 c -64,-32 -151,-115 -180,-171 -17,-35 -21,-60 -21,-141 0,-86 3,-105 27,-151 36,-73 132,-174 196,-205 110,-55 281,-18 394,87 70,65 83,98 83,220 0,92 -3,109 -27,156 -36,73 -132,174 -196,205 -43,22 -65,26 -137,26 -73,0 -94,-4 -139,-26 z m 154,-145 c 84,-21 164,-120 178,-221 7,-48 -26,-115 -73,-146 -30,-20 -43,-23 -85,-17 -53,7 -96,29 -132,67 -36,39 -74,133 -75,188 -1,46 2,54 37,90 48,50 78,57 150,39 z"
       id="path258"
       style="fill:#ff0000;stroke-width:8.54698277"
       inkscape:connector-curvature="0" />
    <path
       d="m 6250,3615 c -38,-55 -36,-59 59,-105 39,-18 71,-38 71,-44 0,-5 -59,-115 -130,-244 -92,-164 -128,-238 -121,-246 12,-14 129,-71 134,-65 2,2 59,99 125,214 67,116 126,216 131,224 8,12 25,7 102,-28 l 93,-43 18,22 c 21,27 32,64 25,84 -13,34 -410,276 -453,276 -16,0 -33,-14 -54,-45 z"
       id="path260"
       style="fill:#ff0000;stroke-width:8.54698277"
       inkscape:connector-curvature="0" />
    <path
       d="m 13405,3499 c -38,-16 -73,-33 -78,-38 -6,-6 120,-262 180,-364 10,-17 -57,24 -211,132 -90,62 -170,111 -183,111 -12,0 -46,-11 -75,-24 -29,-13 -65,-29 -81,-35 l -27,-11 152,-305 c 104,-207 158,-305 169,-305 8,0 40,12 70,28 80,40 79,55 -21,247 -44,86 -75,153 -68,149 7,-4 95,-61 196,-126 101,-65 187,-118 192,-118 16,0 160,74 160,82 0,9 -299,608 -303,607 -1,0 -33,-14 -72,-30 z"
       id="path262"
       style="fill:#ff0000;stroke-width:8.54698277"
       inkscape:connector-curvature="0" />
    <path
       d="m 6801,3320 c -34,-47 -101,-197 -148,-330 -53,-154 -44,-219 47,-304 92,-86 216,-125 304,-96 51,16 132,99 190,193 50,81 133,273 142,329 l 6,33 -76,28 c -42,16 -80,26 -85,23 -4,-3 -18,-34 -31,-68 -59,-164 -171,-360 -213,-374 -44,-15 -104,4 -140,44 -17,19 -17,22 3,82 22,65 114,278 157,363 13,26 21,52 18,58 -10,15 -102,59 -125,59 -12,0 -31,-16 -49,-40 z"
       id="path264"
       style="fill:#ff0000;stroke-width:8.54698277"
       inkscape:connector-curvature="0" />
    <path
       d="m 12697,3181 c -15,-10 -30,-21 -33,-24 -3,-3 11,-56 31,-117 20,-61 35,-113 34,-114 -18,-15 -202,-77 -208,-70 -5,5 -23,53 -42,107 -34,98 -34,98 -63,93 -58,-12 -136,-54 -136,-74 0,-19 226,-591 238,-604 7,-7 172,38 172,47 0,3 -23,64 -51,136 -28,72 -49,132 -47,133 7,7 194,76 203,76 6,0 30,-57 55,-126 25,-69 47,-127 50,-129 3,-2 40,11 82,28 60,24 78,37 78,51 0,63 -158,453 -225,553 -32,49 -38,53 -73,52 -20,0 -49,-8 -65,-18 z"
       id="path266"
       style="fill:#ff0000;stroke-width:8.54698277"
       inkscape:connector-curvature="0" />
    <path
       d="m 7380,3074 c -11,-25 -23,-56 -26,-69 -6,-26 -7,-25 124,-55 28,-7 52,-16 52,-20 0,-5 -38,-119 -86,-254 -47,-136 -83,-250 -79,-255 3,-5 37,-21 76,-36 60,-23 73,-25 84,-14 7,8 49,120 95,249 45,129 83,236 85,238 2,2 44,-7 95,-19 75,-17 94,-19 101,-8 8,14 23,108 18,113 -6,5 -504,176 -512,176 -4,0 -17,-21 -27,-46 z"
       id="path268"
       style="fill:#ff0000;stroke-width:8.54698277"
       inkscape:connector-curvature="0" />
    <path
       d="m 7989,2894 c -16,-44 -149,-579 -149,-603 0,-11 10,-27 23,-35 47,-31 381,-116 455,-116 25,0 30,5 36,31 13,68 8,86 -30,104 -51,24 -153,52 -220,61 l -56,7 7,61 c 3,33 8,63 11,65 2,2 72,-10 156,-27 84,-16 155,-28 157,-26 9,8 29,139 23,145 -4,3 -72,19 -150,34 l -144,28 7,46 c 4,25 10,50 14,54 5,5 48,-3 97,-18 109,-31 202,-42 232,-26 19,10 22,20 22,69 v 57 l -218,53 c -119,29 -227,55 -239,58 -18,5 -25,1 -34,-22 z"
       id="path270"
       style="fill:#ff0000;stroke-width:8.54698277"
       inkscape:connector-curvature="0" />
    <path
       d="m 11858,2901 c -76,-30 -124,-75 -160,-149 -28,-57 -34,-79 -36,-154 -7,-172 69,-304 210,-363 56,-23 230,-20 283,4 87,40 152,142 162,252 l 6,58 -39,-6 c -129,-19 -118,-14 -126,-66 -10,-70 -39,-96 -121,-111 -99,-18 -186,99 -190,254 -2,51 2,71 17,91 38,49 67,63 128,64 48,0 61,-4 85,-27 34,-33 48,-34 114,-11 34,12 49,23 49,36 0,35 -29,85 -66,113 -36,28 -43,29 -153,31 -94,2 -125,-1 -163,-16 z"
       id="path272"
       style="fill:#ff0000;stroke-width:8.54698277"
       inkscape:connector-curvature="0" />
    <path
       d="m 11375,2783 c -16,-3 -97,-20 -178,-39 -82,-19 -157,-34 -167,-34 -10,0 -22,-5 -26,-11 -7,-11 104,-648 116,-662 7,-8 509,71 522,82 7,6 -15,137 -25,147 -3,4 -78,-8 -167,-25 -88,-17 -166,-31 -174,-31 -14,0 -38,94 -29,117 7,18 84,39 197,54 l 96,12 v 57 c 0,31 -5,61 -12,68 -18,18 -90,14 -213,-12 -60,-13 -111,-22 -113,-21 -2,1 0,25 4,53 l 6,50 71,16 c 39,9 108,24 154,33 l 83,18 v 56 c 0,55 -1,57 -31,68 -32,11 -58,12 -114,4 z"
       id="path274"
       style="fill:#ff0000;stroke-width:8.54698277"
       inkscape:connector-curvature="0" />
    <path
       d="m 8964,2672 c -57,-42 -123,-117 -145,-165 -15,-34 -19,-66 -19,-175 0,-153 8,-180 70,-242 97,-97 262,-136 383,-90 71,27 162,112 198,185 21,44 24,64 24,160 0,98 -3,116 -26,166 -35,74 -89,132 -152,163 -46,24 -62,26 -172,26 -118,0 -123,-1 -161,-28 z m 261,-141 c 50,-28 70,-75 69,-161 0,-60 -5,-85 -26,-125 -43,-83 -68,-100 -148,-100 -59,0 -72,3 -95,25 -53,49 -67,103 -54,196 11,76 39,137 74,160 55,36 122,38 180,5 z"
       id="path276"
       style="fill:#ff0000;stroke-width:8.54698277"
       inkscape:connector-curvature="0" />
    <path
       d="m 10610,2664 c -74,-12 -156,-23 -182,-23 l -48,-1 v -76 c 0,-74 1,-76 23,-71 47,12 167,19 168,11 0,-5 10,-124 22,-264 l 22,-255 96,-3 96,-3 -4,53 c -3,29 -12,155 -22,281 l -16,227 h 87 88 v 69 c 0,54 -4,70 -16,75 -32,12 -183,3 -314,-20 z"
       id="path278"
       style="fill:#ff0000;stroke-width:8.54698277"
       inkscape:connector-curvature="0" />
    <path
       d="m 9596,2618 c -3,-13 -8,-131 -11,-263 -3,-132 -8,-275 -12,-317 l -6,-78 h 97 96 v 130 130 h 140 140 v 70 70 h -130 -130 v 70 70 h 118 c 64,0 131,-4 147,-8 50,-14 55,-7 55,74 v 74 h -250 -250 z"
       id="path280"
       style="fill:#ff0000;stroke-width:8.54698277"
       inkscape:connector-curvature="0" />
  </g>
</svg>
